<svg xmlns="http://www.w3.org/2000/svg" xmlns:v="https://svgstorm.com"
viewBox = "0 0 405 386"
width="405"
height="386">
<g fill="None" fill-opacity="0.0" stroke="#000000" stroke-opacity="0.00" stroke-width="0.3"><path d="
M 0.00 386.00 
L 405.00 386.00
L 405.00 0.00
L 0.00 0.00
L 0.00 386.00
M 288.00 80.00 
C 269.07 91.56 252.00 94.41 233.77 108.77 C 215.54 123.13 227.35 161.21 224.00 182.00
C 214.76 180.91 220.03 166.55 219.00 158.00 C 217.97 149.45 219.74 136.75 219.00 128.00 C 218.26 119.25 220.08 106.35 218.67 98.33 C 217.26 90.31 213.20 84.33 206.77 80.23 C 200.34 76.13 194.05 73.10 187.31 69.69 C 180.56 66.29 174.61 62.55 167.77 59.23 C 160.93 55.91 154.93 52.39 147.92 49.08 C 140.92 45.77 136.09 41.34 128.31 38.69 C 120.52 36.05 117.61 28.88 123.77 21.77 C 129.94 14.66 135.47 12.44 145.00 13.00 C 154.53 13.56 165.28 12.72 175.00 13.00 C 184.72 13.28 195.28 12.82 205.00 13.00 C 214.72 13.18 225.47 12.79 235.00 13.00 C 244.53 13.21 255.98 12.62 265.00 13.00 C 274.02 13.38 280.30 15.20 285.25 22.75 C 290.20 30.30 287.43 40.80 288.00 50.00 C 288.57 59.20 287.57 70.60 288.00 80.00
M 212.00 182.00 
C 190.33 183.71 170.90 179.72 149.00 182.00 C 127.10 184.28 117.39 168.94 120.00 148.00 C 122.61 127.06 118.04 105.03 120.00 84.00
C 134.79 90.54 146.71 97.49 161.23 105.77 C 175.75 114.05 187.50 117.54 202.25 127.75 C 216.99 137.97 211.07 165.83 212.00 182.00
M 288.00 129.00 
C 285.24 144.01 294.49 166.44 280.92 176.92 C 267.34 187.39 247.10 179.47 231.00 182.00
C 226.57 148.47 267.44 143.52 288.00 129.00
M 134.00 335.00 
C 124.67 335.00 115.33 335.00 106.00 335.00
C 106.00 323.33 106.00 311.67 106.00 300.00
C 99.49 300.77 90.08 298.68 84.00 299.00 C 77.92 299.32 76.04 299.88 70.32 299.66 C 64.60 299.44 52.57 295.76 54.00 305.00 C 55.43 314.24 52.24 318.57 54.00 328.00 C 55.76 337.43 47.94 334.07 40.00 335.00 C 32.06 335.93 24.25 335.11 26.00 326.00 C 27.75 316.89 24.92 311.10 26.00 303.00 C 27.08 294.90 24.87 287.38 26.00 280.00 C 27.13 272.62 22.59 264.47 29.00 262.00
C 22.43 252.48 27.72 233.49 26.00 221.00 C 24.28 208.51 32.79 199.60 46.00 201.00 C 59.21 202.40 77.22 199.26 90.00 201.00 C 102.78 202.74 120.98 195.58 129.75 206.25 C 138.52 216.91 132.64 232.39 134.00 246.00 C 135.36 259.61 133.30 275.77 134.00 290.00 C 134.70 304.23 133.48 320.58 134.00 335.00
M 186.00 334.00 
C 189.26 325.07 192.25 316.10 195.00 307.00
C 207.00 307.00 219.00 307.00 231.00 307.00
C 231.00 292.33 231.00 277.67 231.00 263.00
C 213.33 263.00 195.67 263.00 178.00 263.00
C 178.00 298.67 178.00 334.33 178.00 370.00
C 164.88 370.13 147.87 374.65 150.00 359.00 C 152.13 343.35 148.73 331.25 150.00 317.00 C 151.27 302.75 148.73 288.01 150.00 275.00 C 151.27 261.99 146.28 247.70 156.70 239.70 C 167.12 231.70 182.33 237.68 195.00 236.00 C 207.67 234.32 223.11 237.59 236.00 236.00 C 248.89 234.41 259.13 242.95 258.00 256.00 C 256.87 269.05 259.79 273.52 258.20 284.25 C 256.61 294.98 260.00 308.67 257.67 321.67 C 255.34 334.67 240.22 335.06 228.00 334.00 C 215.78 332.94 198.66 334.80 186.00 334.00
M 310.00 335.00 
C 312.64 325.57 316.35 316.46 319.00 307.00
C 331.00 307.00 343.00 307.00 355.00 307.00
C 353.86 292.57 354.61 277.29 355.00 264.00
C 337.33 264.00 319.67 264.00 302.00 264.00
C 301.71 301.47 303.11 336.79 302.00 370.00
C 293.00 370.00 284.00 370.00 275.00 370.00
C 275.96 354.74 273.72 334.79 275.00 320.00 C 276.28 305.21 272.60 292.35 274.40 281.25 C 276.19 270.15 269.43 246.57 281.25 239.25 C 293.07 231.93 313.81 235.99 328.00 236.00 C 342.19 236.01 363.23 232.05 375.74 239.26 C 388.26 246.47 379.55 271.34 382.00 283.00 C 384.45 294.66 380.91 298.79 382.20 310.25 C 383.49 321.71 377.52 337.34 361.00 335.00 C 344.48 332.66 326.64 336.76 310.00 335.00
M 78.00 303.00 
C 81.47 305.19 75.44 311.69 72.33 308.67 C 69.22 305.64 74.75 300.95 78.00 303.00 Z"/>
</g>
<g fill="None" fill-opacity="0.0" stroke="#87BE24" stroke-opacity="0.97" stroke-width="0.3"><path d="
M 288.00 80.00 
C 287.57 70.60 288.57 59.20 288.00 50.00 C 287.43 40.80 290.20 30.30 285.25 22.75 C 280.30 15.20 274.02 13.38 265.00 13.00 C 255.98 12.62 244.53 13.21 235.00 13.00 C 225.47 12.79 214.72 13.18 205.00 13.00 C 195.28 12.82 184.72 13.28 175.00 13.00 C 165.28 12.72 154.53 13.56 145.00 13.00 C 135.47 12.44 129.94 14.66 123.77 21.77 C 117.61 28.88 120.52 36.05 128.31 38.69 C 136.09 41.34 140.92 45.77 147.92 49.08 C 154.93 52.39 160.93 55.91 167.77 59.23 C 174.61 62.55 180.56 66.29 187.31 69.69 C 194.05 73.10 200.34 76.13 206.77 80.23 C 213.20 84.33 217.26 90.31 218.67 98.33 C 220.08 106.35 218.26 119.25 219.00 128.00 C 219.74 136.75 217.97 149.45 219.00 158.00 C 220.03 166.55 214.76 180.91 224.00 182.00
C 227.35 161.21 215.54 123.13 233.77 108.77 C 252.00 94.41 269.07 91.56 288.00 80.00 Z"/>
</g>
<g fill="None" fill-opacity="0.0" stroke="#87BE24" stroke-opacity="0.96" stroke-width="0.3"><path d="
M 212.00 182.00 
C 211.07 165.83 216.99 137.97 202.25 127.75 C 187.50 117.54 175.75 114.05 161.23 105.77 C 146.71 97.49 134.79 90.54 120.00 84.00
C 118.04 105.03 122.61 127.06 120.00 148.00 C 117.39 168.94 127.10 184.28 149.00 182.00 C 170.90 179.72 190.33 183.71 212.00 182.00 Z"/>
</g>
<g fill="None" fill-opacity="0.0" stroke="#87BE24" stroke-opacity="0.96" stroke-width="0.3"><path d="
M 288.00 129.00 
C 267.44 143.52 226.57 148.47 231.00 182.00
C 247.10 179.47 267.34 187.39 280.92 176.92 C 294.49 166.44 285.24 144.01 288.00 129.00 Z"/>
</g>
<g fill="None" fill-opacity="0.0" stroke="#87BE24" stroke-opacity="0.95" stroke-width="0.3"><path d="
M 134.00 335.00 
C 133.48 320.58 134.70 304.23 134.00 290.00 C 133.30 275.77 135.36 259.61 134.00 246.00 C 132.64 232.39 138.52 216.91 129.75 206.25 C 120.98 195.58 102.78 202.74 90.00 201.00 C 77.22 199.26 59.21 202.40 46.00 201.00 C 32.79 199.60 24.28 208.51 26.00 221.00 C 27.72 233.49 22.43 252.48 29.00 262.00
C 22.59 264.47 27.13 272.62 26.00 280.00 C 24.87 287.38 27.08 294.90 26.00 303.00 C 24.92 311.10 27.75 316.89 26.00 326.00 C 24.25 335.11 32.06 335.93 40.00 335.00 C 47.94 334.07 55.76 337.43 54.00 328.00 C 52.24 318.57 55.43 314.24 54.00 305.00 C 52.57 295.76 64.60 299.44 70.32 299.66 C 76.04 299.88 77.92 299.32 84.00 299.00 C 90.08 298.68 99.49 300.77 106.00 300.00
C 106.00 311.67 106.00 323.33 106.00 335.00
C 115.33 335.00 124.67 335.00 134.00 335.00
M 106.00 228.00 
C 106.00 242.33 106.00 256.67 106.00 271.00
C 88.67 271.00 71.33 271.00 54.00 271.00
C 56.31 256.44 52.86 243.36 54.00 228.00
C 71.33 228.00 88.67 228.00 106.00 228.00 Z"/>
</g>
<g fill="None" fill-opacity="0.0" stroke="#000000" stroke-opacity="0.00" stroke-width="0.3"><path d="
M 106.00 228.00 
C 88.67 228.00 71.33 228.00 54.00 228.00
C 52.86 243.36 56.31 256.44 54.00 271.00
C 71.33 271.00 88.67 271.00 106.00 271.00
C 106.00 256.67 106.00 242.33 106.00 228.00 Z"/>
</g>
<g fill="None" fill-opacity="0.0" stroke="#87BE24" stroke-opacity="0.96" stroke-width="0.3"><path d="
M 186.00 334.00 
C 198.66 334.80 215.78 332.94 228.00 334.00 C 240.22 335.06 255.34 334.67 257.67 321.67 C 260.00 308.67 256.61 294.98 258.20 284.25 C 259.79 273.52 256.87 269.05 258.00 256.00 C 259.13 242.95 248.89 234.41 236.00 236.00 C 223.11 237.59 207.67 234.32 195.00 236.00 C 182.33 237.68 167.12 231.70 156.70 239.70 C 146.28 247.70 151.27 261.99 150.00 275.00 C 148.73 288.01 151.27 302.75 150.00 317.00 C 148.73 331.25 152.13 343.35 150.00 359.00 C 147.87 374.65 164.88 370.13 178.00 370.00
C 178.00 334.33 178.00 298.67 178.00 263.00
C 195.67 263.00 213.33 263.00 231.00 263.00
C 231.00 277.67 231.00 292.33 231.00 307.00
C 219.00 307.00 207.00 307.00 195.00 307.00
C 192.25 316.10 189.26 325.07 186.00 334.00 Z"/>
</g>
<g fill="None" fill-opacity="0.0" stroke="#87BE24" stroke-opacity="0.96" stroke-width="0.3"><path d="
M 310.00 335.00 
C 326.64 336.76 344.48 332.66 361.00 335.00 C 377.52 337.34 383.49 321.71 382.20 310.25 C 380.91 298.79 384.45 294.66 382.00 283.00 C 379.55 271.34 388.26 246.47 375.74 239.26 C 363.23 232.05 342.19 236.01 328.00 236.00 C 313.81 235.99 293.07 231.93 281.25 239.25 C 269.43 246.57 276.19 270.15 274.40 281.25 C 272.60 292.35 276.28 305.21 275.00 320.00 C 273.72 334.79 275.96 354.74 275.00 370.00
C 284.00 370.00 293.00 370.00 302.00 370.00
C 303.11 336.79 301.71 301.47 302.00 264.00
C 319.67 264.00 337.33 264.00 355.00 264.00
C 354.61 277.29 353.86 292.57 355.00 307.00
C 343.00 307.00 331.00 307.00 319.00 307.00
C 316.35 316.46 312.64 325.57 310.00 335.00 Z"/>
</g>
<g fill="None" fill-opacity="0.0" stroke="#87BE24" stroke-opacity="0.31" stroke-width="0.3"><path d="
M 78.00 303.00 
C 74.75 300.95 69.22 305.64 72.33 308.67 C 75.44 311.69 81.47 305.19 78.00 303.00 Z"/>
</g>
<g fill="#000000" fill-opacity="0.00" stroke="None">
<path d="
M 0.00 386.00 
L 405.00 386.00
L 405.00 0.00
L 0.00 0.00
L 0.00 386.00
M 288.00 80.00 
C 269.07 91.56 252.00 94.41 233.77 108.77 C 215.54 123.13 227.35 161.21 224.00 182.00
C 214.76 180.91 220.03 166.55 219.00 158.00 C 217.97 149.45 219.74 136.75 219.00 128.00 C 218.26 119.25 220.08 106.35 218.67 98.33 C 217.26 90.31 213.20 84.33 206.77 80.23 C 200.34 76.13 194.05 73.10 187.31 69.69 C 180.56 66.29 174.61 62.55 167.77 59.23 C 160.93 55.91 154.93 52.39 147.92 49.08 C 140.92 45.77 136.09 41.34 128.31 38.69 C 120.52 36.05 117.61 28.88 123.77 21.77 C 129.94 14.66 135.47 12.44 145.00 13.00 C 154.53 13.56 165.28 12.72 175.00 13.00 C 184.72 13.28 195.28 12.82 205.00 13.00 C 214.72 13.18 225.47 12.79 235.00 13.00 C 244.53 13.21 255.98 12.62 265.00 13.00 C 274.02 13.38 280.30 15.20 285.25 22.75 C 290.20 30.30 287.43 40.80 288.00 50.00 C 288.57 59.20 287.57 70.60 288.00 80.00
M 212.00 182.00 
C 190.33 183.71 170.90 179.72 149.00 182.00 C 127.10 184.28 117.39 168.94 120.00 148.00 C 122.61 127.06 118.04 105.03 120.00 84.00
C 134.79 90.54 146.71 97.49 161.23 105.77 C 175.75 114.05 187.50 117.54 202.25 127.75 C 216.99 137.97 211.07 165.83 212.00 182.00
M 288.00 129.00 
C 285.24 144.01 294.49 166.44 280.92 176.92 C 267.34 187.39 247.10 179.47 231.00 182.00
C 226.57 148.47 267.44 143.52 288.00 129.00
M 134.00 335.00 
C 124.67 335.00 115.33 335.00 106.00 335.00
C 106.00 323.33 106.00 311.67 106.00 300.00
C 99.49 300.77 90.08 298.68 84.00 299.00 C 77.92 299.32 76.04 299.88 70.32 299.66 C 64.60 299.44 52.57 295.76 54.00 305.00 C 55.43 314.24 52.24 318.57 54.00 328.00 C 55.76 337.43 47.94 334.07 40.00 335.00 C 32.06 335.93 24.25 335.11 26.00 326.00 C 27.75 316.89 24.92 311.10 26.00 303.00 C 27.08 294.90 24.87 287.38 26.00 280.00 C 27.13 272.62 22.59 264.47 29.00 262.00
C 22.43 252.48 27.72 233.49 26.00 221.00 C 24.28 208.51 32.79 199.60 46.00 201.00 C 59.21 202.40 77.22 199.26 90.00 201.00 C 102.78 202.74 120.98 195.58 129.75 206.25 C 138.52 216.91 132.64 232.39 134.00 246.00 C 135.36 259.61 133.30 275.77 134.00 290.00 C 134.70 304.23 133.48 320.58 134.00 335.00
M 186.00 334.00 
C 189.26 325.07 192.25 316.10 195.00 307.00
C 207.00 307.00 219.00 307.00 231.00 307.00
C 231.00 292.33 231.00 277.67 231.00 263.00
C 213.33 263.00 195.67 263.00 178.00 263.00
C 178.00 298.67 178.00 334.33 178.00 370.00
C 164.88 370.13 147.87 374.65 150.00 359.00 C 152.13 343.35 148.73 331.25 150.00 317.00 C 151.27 302.75 148.73 288.01 150.00 275.00 C 151.27 261.99 146.28 247.70 156.70 239.70 C 167.12 231.70 182.33 237.68 195.00 236.00 C 207.67 234.32 223.11 237.59 236.00 236.00 C 248.89 234.41 259.13 242.95 258.00 256.00 C 256.87 269.05 259.79 273.52 258.20 284.25 C 256.61 294.98 260.00 308.67 257.67 321.67 C 255.34 334.67 240.22 335.06 228.00 334.00 C 215.78 332.94 198.66 334.80 186.00 334.00
M 310.00 335.00 
C 312.64 325.57 316.35 316.46 319.00 307.00
C 331.00 307.00 343.00 307.00 355.00 307.00
C 353.86 292.57 354.61 277.29 355.00 264.00
C 337.33 264.00 319.67 264.00 302.00 264.00
C 301.71 301.47 303.11 336.79 302.00 370.00
C 293.00 370.00 284.00 370.00 275.00 370.00
C 275.96 354.74 273.72 334.79 275.00 320.00 C 276.28 305.21 272.60 292.35 274.40 281.25 C 276.19 270.15 269.43 246.57 281.25 239.25 C 293.07 231.93 313.81 235.99 328.00 236.00 C 342.19 236.01 363.23 232.05 375.74 239.26 C 388.26 246.47 379.55 271.34 382.00 283.00 C 384.45 294.66 380.91 298.79 382.20 310.25 C 383.49 321.71 377.52 337.34 361.00 335.00 C 344.48 332.66 326.64 336.76 310.00 335.00
M 78.00 303.00 
C 81.47 305.19 75.44 311.69 72.33 308.67 C 69.22 305.64 74.75 300.95 78.00 303.00 Z"/>
</g>
<g fill="#87BE24" fill-opacity="0.97" stroke="None">
<path d="
M 288.00 80.00 
C 287.57 70.60 288.57 59.20 288.00 50.00 C 287.43 40.80 290.20 30.30 285.25 22.75 C 280.30 15.20 274.02 13.38 265.00 13.00 C 255.98 12.62 244.53 13.21 235.00 13.00 C 225.47 12.79 214.72 13.18 205.00 13.00 C 195.28 12.82 184.72 13.28 175.00 13.00 C 165.28 12.72 154.53 13.56 145.00 13.00 C 135.47 12.44 129.94 14.66 123.77 21.77 C 117.61 28.88 120.52 36.05 128.31 38.69 C 136.09 41.34 140.92 45.77 147.92 49.08 C 154.93 52.39 160.93 55.91 167.77 59.23 C 174.61 62.55 180.56 66.29 187.31 69.69 C 194.05 73.10 200.34 76.13 206.77 80.23 C 213.20 84.33 217.26 90.31 218.67 98.33 C 220.08 106.35 218.26 119.25 219.00 128.00 C 219.74 136.75 217.97 149.45 219.00 158.00 C 220.03 166.55 214.76 180.91 224.00 182.00
C 227.35 161.21 215.54 123.13 233.77 108.77 C 252.00 94.41 269.07 91.56 288.00 80.00 Z"/>
</g>
<g fill="#87BE24" fill-opacity="0.96" stroke="None">
<path d="
M 212.00 182.00 
C 211.07 165.83 216.99 137.97 202.25 127.75 C 187.50 117.54 175.75 114.05 161.23 105.77 C 146.71 97.49 134.79 90.54 120.00 84.00
C 118.04 105.03 122.61 127.06 120.00 148.00 C 117.39 168.94 127.10 184.28 149.00 182.00 C 170.90 179.72 190.33 183.71 212.00 182.00 Z"/>
</g>
<g fill="#87BE24" fill-opacity="0.96" stroke="None">
<path d="
M 288.00 129.00 
C 267.44 143.52 226.57 148.47 231.00 182.00
C 247.10 179.47 267.34 187.39 280.92 176.92 C 294.49 166.44 285.24 144.01 288.00 129.00 Z"/>
</g>
<g fill="#87BE24" fill-opacity="0.95" stroke="None">
<path d="
M 134.00 335.00 
C 133.48 320.58 134.70 304.23 134.00 290.00 C 133.30 275.77 135.36 259.61 134.00 246.00 C 132.64 232.39 138.52 216.91 129.75 206.25 C 120.98 195.58 102.78 202.74 90.00 201.00 C 77.22 199.26 59.21 202.40 46.00 201.00 C 32.79 199.60 24.28 208.51 26.00 221.00 C 27.72 233.49 22.43 252.48 29.00 262.00
C 22.59 264.47 27.13 272.62 26.00 280.00 C 24.87 287.38 27.08 294.90 26.00 303.00 C 24.92 311.10 27.75 316.89 26.00 326.00 C 24.25 335.11 32.06 335.93 40.00 335.00 C 47.94 334.07 55.76 337.43 54.00 328.00 C 52.24 318.57 55.43 314.24 54.00 305.00 C 52.57 295.76 64.60 299.44 70.32 299.66 C 76.04 299.88 77.92 299.32 84.00 299.00 C 90.08 298.68 99.49 300.77 106.00 300.00
C 106.00 311.67 106.00 323.33 106.00 335.00
C 115.33 335.00 124.67 335.00 134.00 335.00
M 106.00 228.00 
C 106.00 242.33 106.00 256.67 106.00 271.00
C 88.67 271.00 71.33 271.00 54.00 271.00
C 56.31 256.44 52.86 243.36 54.00 228.00
C 71.33 228.00 88.67 228.00 106.00 228.00 Z"/>
</g>
<g fill="#000000" fill-opacity="0.00" stroke="None">
<path d="
M 106.00 228.00 
C 88.67 228.00 71.33 228.00 54.00 228.00
C 52.86 243.36 56.31 256.44 54.00 271.00
C 71.33 271.00 88.67 271.00 106.00 271.00
C 106.00 256.67 106.00 242.33 106.00 228.00 Z"/>
</g>
<g fill="#87BE24" fill-opacity="0.96" stroke="None">
<path d="
M 186.00 334.00 
C 198.66 334.80 215.78 332.94 228.00 334.00 C 240.22 335.06 255.34 334.67 257.67 321.67 C 260.00 308.67 256.61 294.98 258.20 284.25 C 259.79 273.52 256.87 269.05 258.00 256.00 C 259.13 242.95 248.89 234.41 236.00 236.00 C 223.11 237.59 207.67 234.32 195.00 236.00 C 182.33 237.68 167.12 231.70 156.70 239.70 C 146.28 247.70 151.27 261.99 150.00 275.00 C 148.73 288.01 151.27 302.75 150.00 317.00 C 148.73 331.25 152.13 343.35 150.00 359.00 C 147.87 374.65 164.88 370.13 178.00 370.00
C 178.00 334.33 178.00 298.67 178.00 263.00
C 195.67 263.00 213.33 263.00 231.00 263.00
C 231.00 277.67 231.00 292.33 231.00 307.00
C 219.00 307.00 207.00 307.00 195.00 307.00
C 192.25 316.10 189.26 325.07 186.00 334.00 Z"/>
</g>
<g fill="#87BE24" fill-opacity="0.96" stroke="None">
<path d="
M 310.00 335.00 
C 326.64 336.76 344.48 332.66 361.00 335.00 C 377.52 337.34 383.49 321.71 382.20 310.25 C 380.91 298.79 384.45 294.66 382.00 283.00 C 379.55 271.34 388.26 246.47 375.74 239.26 C 363.23 232.05 342.19 236.01 328.00 236.00 C 313.81 235.99 293.07 231.93 281.25 239.25 C 269.43 246.57 276.19 270.15 274.40 281.25 C 272.60 292.35 276.28 305.21 275.00 320.00 C 273.72 334.79 275.96 354.74 275.00 370.00
C 284.00 370.00 293.00 370.00 302.00 370.00
C 303.11 336.79 301.71 301.47 302.00 264.00
C 319.67 264.00 337.33 264.00 355.00 264.00
C 354.61 277.29 353.86 292.57 355.00 307.00
C 343.00 307.00 331.00 307.00 319.00 307.00
C 316.35 316.46 312.64 325.57 310.00 335.00 Z"/>
</g>
<g fill="#87BE24" fill-opacity="0.31" stroke="None">
<path d="
M 78.00 303.00 
C 74.75 300.95 69.22 305.64 72.33 308.67 C 75.44 311.69 81.47 305.19 78.00 303.00 Z"/>
</g>
</svg>